<svg xmlns="http://www.w3.org/2000/svg" viewBox="0 0 903.25 632.63"><defs><style>.cls-1{isolation:isolate;}.cls-2{mix-blend-mode:multiply;}.cls-3{fill:#11d17e;}</style></defs><g class="cls-1"><g id="Layer_2" data-name="Layer 2"><g id="Layer_1-2" data-name="Layer 1"><g class="cls-2"><path class="cls-3" d="M896.11,234.44q7.14,53.94,7.14,93.82,0,110.34-45.8,177.31t-145,97q-99.25,30-260.29,30-162,0-261.27-30.29t-145-97.27Q0,438.11,0,326.79,0,284.92,8.13,231t19-102.2l207.34,43.83q-3.45,28.58-8.37,66.25t-4.93,56.88q0,44.33,20.44,62.79t70.68,22.17q50.24,3.69,139.87,3.69,88.15,0,120.91-.25A372.13,372.13,0,0,0,634.1,379q28.32-4.92,67.23-19.7-34-82.25-38.42-119.18T655,172.63L877.64,128.8Q889,180.52,896.11,234.44ZM628.44,50l-.5,173.36L283.19,252.42l-1-171.88Z"/></g><path d="M896.11,184.44q7.14,53.94,7.14,93.82,0,110.34-45.8,177.31t-145,97q-99.25,30-260.29,30-162,0-261.27-30.29t-145-97.27Q0,388.11,0,276.79,0,234.93,8.13,181t19-102.2l207.34,43.83q-3.45,28.58-8.37,66.25t-4.93,56.88q0,44.33,20.44,62.79t70.68,22.17q50.24,3.69,139.87,3.69,88.15,0,120.91-.25A372.13,372.13,0,0,0,634.1,329q28.32-4.92,67.23-19.7-34-82.24-38.42-119.18T655,122.63L877.64,78.8Q889,130.52,896.11,184.44ZM628.44,0l-.5,173.36L283.19,202.42l-1-171.88Z"/></g></g></g></svg>